<?xml version="1.0" standalone="no"?>
<!DOCTYPE svg PUBLIC "-//W3C//DTD SVG 20010904//EN"
 "http://www.w3.org/TR/2001/REC-SVG-20010904/DTD/svg10.dtd">
<svg version="1.0" xmlns="http://www.w3.org/2000/svg"
 width="2000.000000pt" height="2000.000000pt" viewBox="0 0 2000.000000 2000.000000"
 preserveAspectRatio="xMidYMid meet">

<g transform="translate(0.000000,2000.000000) scale(0.100000,-0.100000)"
fill="#000000" stroke="none">
<path d="M3395 19213 c-686 -44 -1321 -329 -1800 -808 -444 -444 -717 -1010
-797 -1655 -19 -155 -19 -13345 0 -13500 80 -646 351 -1209 797 -1655 447
-446 1005 -715 1655 -797 156 -19 13344 -19 13500 0 650 82 1208 351 1655 797
446 447 715 1005 797 1655 19 156 19 13344 0 13500 -82 650 -351 1208 -797
1655 -436 435 -956 692 -1606 792 -108 16 -479 17 -6734 18 -3641 1 -6642 0
-6670 -2z m12190 -3148 l0 -1250 -770 -5 c-826 -6 -834 -7 -1010 -61 -231 -70
-364 -217 -416 -460 -18 -83 -22 -149 -29 -574 -5 -264 -9 -632 -9 -817 l-1
-338 1125 0 c619 0 1125 -1 1125 -3 0 -1 -58 -558 -130 -1237 -71 -679 -130
-1240 -130 -1247 0 -11 -194 -13 -995 -13 l-995 0 0 -3630 0 -3630 -1485 0
-1485 0 -2 3628 -3 3627 -742 3 -743 2 0 1250 0 1250 745 0 745 0 0 898 c0
497 5 962 10 1042 120 1720 933 2601 2575 2785 251 28 446 32 1540 31 l1080
-1 0 -1250z"/>
</g>
</svg>
