<?xml version="1.0" standalone="no"?>
<!DOCTYPE svg PUBLIC "-//W3C//DTD SVG 20010904//EN"
 "http://www.w3.org/TR/2001/REC-SVG-20010904/DTD/svg10.dtd">
<svg version="1.0" xmlns="http://www.w3.org/2000/svg"
 width="500.000000pt" height="500.000000pt" viewBox="0 0 500.000000 500.000000"
 preserveAspectRatio="xMidYMid meet">

<g transform="translate(0.000000,500.000000) scale(0.100000,-0.100000)"
fill="#000000" stroke="none">
<path d="M2450 3515 l-55 -10 -5 -190 c-6 -190 -13 -230 -47 -267 -22 -25 -60
-22 -77 5 -8 12 -17 51 -21 87 -3 36 -14 99 -23 140 l-17 75 -6 -60 -6 -60 1
73 c1 39 -2 72 -6 72 -5 0 -8 10 -9 23 -1 12 -5 2 -10 -23 -5 -25 -38 -102
-74 -172 -36 -70 -72 -152 -79 -182 -29 -110 16 -256 112 -366 24 -28 42 -54
39 -57 -10 -10 53 -94 65 -87 7 4 8 2 4 -4 -4 -7 -13 -12 -20 -12 -8 0 -19 -7
-26 -15 -18 -22 -77 -36 -106 -25 -51 20 -104 102 -160 245 l-24 60 7 -45 c5
-40 32 -118 66 -190 6 -14 25 -45 43 -70 17 -25 46 -73 63 -108 34 -67 74
-102 172 -152 193 -98 457 -73 609 58 39 32 40 36 40 95 0 54 3 64 30 92 28
29 29 32 17 72 -10 33 -16 40 -27 33 -26 -17 -35 -11 -10 6 68 46 130 121 130
159 0 12 -7 11 -37 -9 -21 -14 -51 -28 -66 -32 l-29 -7 16 30 c8 17 20 51 27
76 l11 46 -48 62 c-41 53 -49 59 -55 43 -4 -11 -8 23 -8 76 -1 92 -2 96 -28
112 -26 16 -27 16 -56 -24 -15 -22 -30 -38 -32 -36 -2 2 3 25 12 51 9 26 14
49 12 51 -12 11 -181 126 -184 126 -3 0 -6 -33 -6 -72 l-2 -73 -8 90 c-8 97
-37 273 -48 291 -4 7 -23 7 -61 -1z m-263 -337 c-3 -7 -5 -2 -5 12 0 14 2 19
5 13 2 -7 2 -19 0 -25z m-50 -180 c-3 -7 -5 -2 -5 12 0 14 2 19 5 13 2 -7 2
-19 0 -25z m378 -88 c6 0 38 3 71 6 142 14 230 -66 189 -172 -9 -24 -20 -44
-24 -44 -3 0 -6 18 -6 41 0 33 -6 46 -30 66 -24 22 -36 25 -74 20 -25 -3 -54
-9 -65 -13 -16 -6 -17 -5 -7 14 7 12 9 22 7 22 -3 0 -13 -14 -21 -31 -15 -29
-15 -33 4 -75 12 -24 35 -56 51 -71 24 -21 30 -35 30 -65 0 -22 -5 -49 -12
-61 -10 -20 -10 -21 5 -9 22 18 32 10 52 -43 32 -83 -2 -160 -89 -201 -31 -14
-60 -32 -67 -40 -10 -12 -15 -12 -31 3 -11 10 -41 29 -66 43 -61 33 -92 80
-92 138 0 56 37 127 57 110 11 -9 12 -6 3 16 -18 48 -12 74 25 107 19 18 40
47 47 66 7 18 15 33 19 33 13 0 -11 58 -29 71 -14 11 -15 11 -4 -1 19 -22 14
-30 -14 -20 -81 31 -154 -6 -154 -80 0 -22 -4 -40 -10 -40 -5 0 -9 3 -8 8 1 4
-4 18 -11 31 -17 31 -9 96 16 123 36 41 92 59 163 53 36 -2 70 -5 75 -5z
m-378 -32 c-3 -8 -6 -5 -6 6 -1 11 2 17 5 13 3 -3 4 -12 1 -19z m710 -15 c-3
-10 -5 -4 -5 12 0 17 2 24 5 18 2 -7 2 -21 0 -30z m-422 -65 c35 -16 32 -24
-21 -38 -51 -15 -70 -5 -59 29 7 24 39 28 80 9z m263 -12 c6 -31 -11 -38 -62
-25 -51 13 -57 21 -23 37 34 17 81 11 85 -12z"/>
<path d="M2436 2621 c-4 -5 8 -21 26 -36 29 -25 33 -25 44 -10 11 15 13 15 23
-2 9 -17 12 -16 42 14 29 28 31 33 15 39 -9 4 -28 2 -42 -5 -17 -8 -31 -8 -44
-1 -23 12 -57 13 -64 1z"/>
<path d="M2410 2425 c-67 -29 -55 -33 18 -5 66 25 125 25 181 0 62 -28 76 -23
16 6 -67 32 -141 32 -215 -1z"/>
<path d="M1581 2093 c-72 -38 -76 -50 -79 -281 -3 -171 0 -213 13 -248 18 -47
47 -71 91 -76 27 -3 29 0 29 30 0 24 4 32 17 32 13 0 18 -8 18 -31 0 -17 4
-28 10 -24 6 3 10 17 10 31 0 35 35 32 48 -3 l10 -28 1 28 c1 20 6 27 22 27
18 0 20 -4 14 -30 -4 -19 -3 -30 4 -30 8 0 11 58 11 180 l0 180 -75 0 -75 0 0
-55 c0 -43 3 -55 15 -55 13 0 15 -12 13 -67 -3 -65 -4 -68 -28 -68 l-25 0 -3
187 c-2 176 -1 188 17 197 25 14 39 -3 43 -54 l3 -40 59 -3 59 -3 -6 59 c-6
71 -22 108 -59 135 -37 28 -114 33 -157 10z"/>
<path d="M2604 2096 c-43 -19 -71 -58 -78 -110 -11 -74 9 -118 96 -212 75 -81
79 -87 76 -127 -2 -32 -8 -43 -22 -45 -26 -5 -36 15 -36 71 l0 47 -61 0 -62 0
6 -67 c8 -94 13 -103 53 -103 24 0 34 -5 34 -15 0 -8 -8 -15 -17 -15 -16 -1
-16 -2 1 -15 33 -25 56 -19 56 15 0 20 5 30 15 30 10 0 15 -10 15 -29 0 -17 3
-32 8 -34 14 -8 72 14 72 27 0 8 12 23 27 34 24 18 28 27 31 90 6 100 -8 131
-99 222 -77 77 -91 104 -68 127 18 18 39 3 39 -28 l0 -29 66 0 67 0 -7 42 c-9
55 -25 87 -56 110 -34 25 -116 32 -156 14z"/>
<path d="M1890 2098 c0 -2 -11 -115 -25 -253 -31 -317 -32 -295 5 -295 34 0
42 -25 10 -33 -35 -9 -22 -27 20 -27 35 0 40 3 40 23 0 13 6 35 13 50 9 21 19
27 44 27 31 0 33 -2 39 -50 l7 -50 53 0 54 0 0 33 c0 17 -11 147 -25 287 -14
140 -25 263 -25 273 0 15 -12 17 -105 17 -58 0 -105 -1 -105 -2z m129 -380 c1
-24 -3 -28 -25 -28 l-27 0 7 108 c12 199 19 213 32 72 7 -69 13 -137 13 -152z"/>
<path d="M2190 1828 l0 -273 23 -10 c12 -6 23 -20 25 -32 2 -15 10 -23 23 -23
14 0 19 7 19 30 0 28 2 30 40 30 43 0 57 -23 20 -33 -35 -9 -22 -27 20 -27 38
0 40 2 40 30 0 36 27 42 32 8 3 -21 5 -21 28 12 23 32 25 44 25 137 0 97 -1
103 -27 130 -27 28 -27 29 -8 41 45 28 48 169 4 221 -21 25 -27 26 -143 29
l-121 4 0 -274z m165 112 c0 -60 -2 -65 -22 -68 -22 -3 -23 0 -23 68 0 68 1
71 23 68 20 -3 22 -8 22 -68z m-4 -170 c16 -9 19 -22 19 -78 0 -70 -10 -92
-42 -92 -16 0 -18 10 -18 90 0 93 4 100 41 80z"/>
<path d="M2850 2088 c0 -7 14 -131 31 -275 31 -250 33 -263 53 -263 28 0 42
-11 50 -37 4 -14 15 -23 27 -23 14 0 19 7 19 30 0 27 3 30 33 30 l33 0 32 268
c18 147 33 270 32 275 0 4 -25 7 -55 7 -65 0 -58 19 -80 -214 -8 -94 -17 -171
-18 -173 -2 -1 -11 75 -21 170 -23 237 -16 217 -81 217 -37 0 -55 -4 -55 -12z"/>
<path d="M3200 1825 c0 -238 2 -275 15 -275 8 0 15 -7 15 -15 0 -8 -7 -15 -15
-15 -8 0 -15 -7 -15 -15 0 -10 11 -15 35 -15 32 0 35 2 35 30 0 25 4 30 25 30
l25 0 1 108 1 107 24 -115 c13 -63 26 -125 29 -137 5 -21 11 -23 65 -23 l60 0
0 305 0 305 -60 0 -60 0 -1 -137 -1 -138 -26 135 -27 135 -63 3 -62 3 0 -276z"/>
<path d="M2190 1506 c0 -9 5 -16 10 -16 6 0 10 4 10 9 0 6 -4 13 -10 16 -5 3
-10 -1 -10 -9z"/>
<path d="M2930 1506 c0 -9 5 -16 10 -16 6 0 10 4 10 9 0 6 -4 13 -10 16 -5 3
-10 -1 -10 -9z"/>
<path d="M3060 1505 c0 -8 5 -15 10 -15 6 0 10 7 10 15 0 8 -4 15 -10 15 -5 0
-10 -7 -10 -15z"/>
<path d="M2244 1334 c-8 -44 9 -87 34 -82 13 2 18 15 20 51 4 56 -15 64 -21
10 -3 -25 -4 -22 -2 10 3 57 -21 66 -31 11z"/>
<path d="M2390 1310 c0 -47 3 -60 15 -60 9 0 15 9 15 25 0 14 5 25 10 25 6 0
10 7 10 15 0 8 -4 15 -10 15 -5 0 -10 9 -10 20 0 11 -7 20 -15 20 -12 0 -15
-13 -15 -60z"/>
<path d="M2466 1354 c-3 -9 -6 -36 -6 -60 0 -32 4 -44 15 -44 12 0 15 13 15
60 0 57 -11 78 -24 44z"/>
<path d="M2504 1334 c-8 -44 9 -87 34 -82 9 2 18 13 20 26 4 26 -14 30 -21 5
-3 -10 -5 6 -6 35 -1 60 -17 69 -27 16z"/>
<path d="M2637 1341 c-10 -47 -9 -91 2 -91 5 0 12 6 14 13 4 9 8 8 16 -3 16
-24 24 -4 17 45 -5 28 -12 45 -21 45 -7 0 -15 6 -17 12 -3 7 -8 -2 -11 -21z"/>
<path d="M2718 1357 c-5 -10 -8 -39 -8 -63 0 -40 2 -44 25 -44 14 0 25 5 25
10 0 6 -7 10 -14 10 -11 0 -16 15 -18 53 -2 35 -5 46 -10 34z"/>
<path d="M2330 1300 c0 -27 5 -50 10 -50 6 0 10 11 10 25 0 14 5 25 10 25 15
0 12 19 -4 36 -23 22 -26 17 -26 -36z"/>
<path d="M2540 1335 c0 -8 5 -15 10 -15 6 0 10 7 10 15 0 8 -4 15 -10 15 -5 0
-10 -7 -10 -15z"/>
<path d="M2580 1300 c0 -38 4 -50 15 -50 11 0 15 12 15 50 0 38 -4 50 -15 50
-11 0 -15 -12 -15 -50z"/>
</g>
</svg>
