<?xml version="1.0" standalone="no"?>
<!DOCTYPE svg PUBLIC "-//W3C//DTD SVG 20010904//EN"
 "http://www.w3.org/TR/2001/REC-SVG-20010904/DTD/svg10.dtd">
<svg version="1.0" xmlns="http://www.w3.org/2000/svg"
 width="300.000000pt" height="300.000000pt" viewBox="0 0 300.000000 300.000000"
 preserveAspectRatio="xMidYMid meet">

<g transform="translate(0.000000,300.000000) scale(0.100000,-0.100000)"
fill="#000000" stroke="none">
<path d="M580 2188 c-33 -75 -39 -210 -12 -294 37 -118 97 -184 167 -184 18 0
14 7 -28 51 -73 76 -110 163 -115 270 -3 60 1 103 11 140 22 72 6 83 -23 17z"/>
<path d="M1580 2163 c-42 -51 -76 -126 -90 -198 -16 -82 -11 -129 15 -133 19
-3 20 3 20 85 0 98 17 161 65 237 36 56 32 59 -10 9z"/>
<path d="M540 1706 c0 -37 23 -126 45 -175 34 -73 83 -131 149 -175 48 -32 61
-36 118 -36 l63 0 -56 24 c-71 29 -102 51 -163 115 -52 56 -93 135 -104 202
-5 30 -13 44 -30 50 -16 6 -22 5 -22 -5z"/>
<path d="M700 1268 c0 -26 60 -116 106 -162 81 -79 234 -139 291 -113 35 16
28 24 -26 30 -107 13 -235 102 -296 206 -22 37 -36 51 -52 51 -13 0 -23 -6
-23 -12z"/>
<path d="M470 799 c0 -11 199 -105 270 -128 223 -71 474 -78 705 -20 85 22
272 95 281 111 3 5 -11 1 -33 -8 -78 -34 -200 -73 -283 -90 -119 -25 -364 -25
-480 0 -99 21 -234 67 -305 104 -47 24 -155 46 -155 31z"/>
<path d="M1768 794 c-38 -20 -36 -28 2 -9 17 9 30 18 30 20 0 7 -1 6 -32 -11z"/>
</g>
</svg>
